  <svg
      width="40"
      height="27"
      viewBox="0 0 40 27"
      fill="none"
      xmlns="http://www.w3.org/2000/svg"
    >
      <path
        d="M37.3639 26.1677H2.63606C1.18301 26.1677 0 25.0606 0 23.7014V2.46632C0 1.10585 1.18301 0 2.63606 0H7.97763C8.58071 0 9.07063 0.489922 9.07063 1.093C9.07063 1.69608 8.58071 2.186 7.97763 2.186H2.63606C2.36603 2.186 2.186 2.35445 2.186 2.46632V23.7014C2.186 23.8133 2.36603 23.9817 2.63606 23.9817H37.3639C37.634 23.9817 37.814 23.8133 37.814 23.7014V2.46632C37.814 2.35445 37.634 2.186 37.3639 2.186H15.6492C15.0461 2.186 14.5562 1.69608 14.5562 1.093C14.5562 0.489922 15.0461 0 15.6492 0H37.3639C38.817 0 40 1.10714 40 2.46632V23.7014C40 25.0606 38.817 26.1677 37.3639 26.1677Z"
        fill="#323232"
      ></path>
      <path
        d="M14.711 9.06348H12.6523V11.1222H14.711V9.06348Z"
        fill="#323232"
      ></path>
      <path
        d="M14.7134 8.51866V7.02447C14.7134 6.71328 14.4601 6.45996 14.1489 6.45996H10.0508V8.51866H14.7134Z"
        fill="#323232"
      ></path>
      <path
        d="M9.50401 6.45996H8.00981C7.69863 6.45996 7.44531 6.71328 7.44531 7.02447V8.51866H9.50401V6.45996Z"
        fill="#323232"
      ></path>
      <path
        d="M7.44531 13.1622C7.44531 13.4733 7.69863 13.7267 8.00981 13.7267H12.1079V11.668H7.44531V13.1622Z"
        fill="#323232"
      ></path>
      <path
        d="M12.6523 13.7247H14.1465C14.4577 13.7247 14.711 13.4714 14.711 13.1602V11.666H12.6523V13.7247Z"
        fill="#323232"
      ></path>
      <path
        d="M12.1095 9.06348H10.0508V11.1222H12.1095V9.06348Z"
        fill="#323232"
      ></path>
      <path
        d="M9.50401 9.06348H7.44531V11.1222H9.50401V9.06348Z"
        fill="#323232"
      ></path>
      <path
        d="M32.0886 19.3845H7.91395C7.45232 19.3845 7.07812 19.0103 7.07812 18.5487C7.07812 18.0871 7.45232 17.7129 7.91395 17.7129H32.0886C32.5502 17.7129 32.9244 18.0871 32.9244 18.5487C32.9244 19.0103 32.5502 19.3845 32.0886 19.3845Z"
        fill="#FF003C"
      ></path>
    </svg>