<svg width="68" height="40" viewBox="0 0 68 40" fill="none" xmlns="http://www.w3.org/2000/svg">
<g clip-path="url(#clip0_322_20)">
<path d="M68 20C68 31.0456 58.9793 40 47.8518 40H47.5912H47.4306L47.2751 39.9962C47.1605 39.9962 47.0453 39.9887 46.9313 39.9837C46.8866 39.9837 46.8425 39.98 46.7978 39.9769L46.5579 39.9637L46.3835 39.9519L46.3237 39.9475C46.2715 39.9437 46.2192 39.94 46.1669 39.935C46.1147 39.93 46.0738 39.9275 46.0272 39.9231C45.9699 39.9181 45.9126 39.9131 45.8546 39.9069L45.7583 39.8975C45.6223 39.8837 45.4869 39.8687 45.3516 39.8512C45.3006 39.8456 45.2489 39.8387 45.1973 39.8319C45.0714 39.8165 44.9478 39.7992 44.8265 39.78L44.6407 39.75C44.5778 39.7406 44.5148 39.7306 44.4569 39.72L44.2736 39.6881C44.1931 39.6744 44.1125 39.6594 44.0331 39.6437C43.9702 39.6331 43.9135 39.6212 43.8537 39.6094L43.7278 39.5831C43.6056 39.5581 43.4847 39.5319 43.3638 39.5044L43.1856 39.4631L43.0062 39.42C42.8866 39.3912 42.7676 39.3608 42.6492 39.3287L42.4723 39.2812L42.2953 39.2319C42.1776 39.1981 42.0599 39.1637 41.9434 39.1281L41.7923 39.0819L41.7192 39.0587L41.5757 39.0125C41.4535 38.9725 41.3314 38.9319 41.2105 38.8875L41.0367 38.825L41.0191 38.8187L40.8491 38.7562C40.6684 38.6937 40.4902 38.6219 40.3126 38.55L40.1357 38.4781L39.9594 38.4044C39.8419 38.3556 39.7252 38.305 39.6094 38.2525L39.4589 38.1875L39.4104 38.1656L39.292 38.1106C38.7883 37.8765 38.2957 37.6215 37.8143 37.3456L37.6638 37.2587C37.5826 37.2119 37.5014 37.1637 37.4214 37.115L37.2955 37.0369L37.2476 37.0081L37.1286 36.9337C36.9565 36.8271 36.7869 36.7175 36.6199 36.605L36.4669 36.5C36.3922 36.4496 36.3179 36.3983 36.244 36.3462C36.2397 36.3437 36.2357 36.3408 36.232 36.3375C36.1556 36.2842 36.0801 36.2304 36.0053 36.1762L35.9921 36.1669C35.9111 36.1081 35.8305 36.0487 35.7503 35.9887C35.7407 35.9824 35.7315 35.9755 35.7226 35.9681C35.6528 35.9162 35.5835 35.8637 35.5149 35.81C35.4985 35.7987 35.4834 35.7869 35.4683 35.7744C35.4009 35.7225 35.3335 35.67 35.2668 35.6162C35.2416 35.5969 35.2164 35.5762 35.1912 35.5537C35.1232 35.5 35.0552 35.4444 34.9879 35.3881C34.9728 35.3769 34.9583 35.365 34.9444 35.3525C34.8966 35.3133 34.8487 35.2733 34.8009 35.2325C34.7581 35.1969 34.7152 35.16 34.6749 35.1237C34.6032 35.0633 34.5324 35.0008 34.4628 34.9362C34.3878 34.8706 34.3142 34.8037 34.2405 34.7369C34.1668 34.67 34.0976 34.6062 34.0271 34.5394C33.6778 34.2131 33.3405 33.874 33.0152 33.5219C32.9781 33.4825 32.9416 33.4425 32.9057 33.4025C32.8553 33.3481 32.8056 33.2931 32.7571 33.2375C32.7086 33.1819 32.6645 33.1337 32.6192 33.0812C32.5739 33.0287 32.5141 32.96 32.4618 32.8987C32.3082 32.7192 32.1583 32.5369 32.0122 32.3519L31.8914 32.1975C31.7768 32.0512 31.6647 31.9029 31.5551 31.7525C31.4922 31.6662 31.4292 31.58 31.3662 31.4925C31.3617 31.4867 31.3575 31.4807 31.3536 31.4744C31.2928 31.3881 31.2323 31.3012 31.1723 31.2137C31.1173 31.1346 31.0636 31.0548 31.0111 30.9744C30.9897 30.9431 30.9683 30.9119 30.9482 30.8781C30.91 30.8206 30.8722 30.7625 30.8348 30.7037C30.8204 30.6819 30.8059 30.66 30.7926 30.6375C30.7385 30.5542 30.6852 30.4687 30.6327 30.3812C30.5748 30.2875 30.5181 30.1937 30.4621 30.0975C30.4061 30.0012 30.3506 29.91 30.2959 29.8112C30.2644 29.7556 30.2329 29.7006 30.2021 29.6444L30.1347 29.5194C30.0963 29.4506 30.0591 29.3812 30.022 29.3119C30.0132 29.2956 30.0044 29.2787 29.9962 29.2619C29.9647 29.1994 29.9332 29.1425 29.9024 29.0825C29.8646 29.0087 29.8274 28.935 29.7903 28.8612C29.7531 28.7875 29.7172 28.7131 29.6814 28.6394C29.6092 28.4906 29.5388 28.3408 29.4704 28.19C29.402 28.0392 29.3355 27.8873 29.2708 27.7344C29.2387 27.6581 29.2079 27.5812 29.1751 27.5044C29.1424 27.4275 29.1122 27.3512 29.0826 27.2744C29.0524 27.1975 29.0196 27.1206 28.9932 27.0431C28.9667 26.9656 28.9346 26.8875 28.9056 26.8094C28.8217 26.5752 28.7405 26.3385 28.662 26.0994C28.6362 26.02 28.611 25.94 28.5864 25.86C28.5505 25.7444 28.5159 25.6275 28.4819 25.5106C28.4655 25.4525 28.4485 25.3937 28.4322 25.335C28.4158 25.2762 28.4001 25.2181 28.3843 25.1594C28.352 25.0419 28.3214 24.9237 28.2924 24.805C28.2773 24.7458 28.2628 24.6865 28.2489 24.6269L28.2074 24.45C28.1797 24.33 28.1532 24.21 28.1281 24.0888L28.1016 23.9638C28.0896 23.9044 28.0777 23.845 28.067 23.7856C28.0512 23.7069 28.0361 23.6269 28.0223 23.5469C28.0109 23.4865 28.0002 23.4258 27.9902 23.365C27.9795 23.3025 27.9694 23.24 27.9599 23.1825C27.9505 23.125 27.9404 23.0575 27.931 22.9988C27.9121 22.8738 27.8951 22.7537 27.8787 22.6306C27.8718 22.5794 27.8649 22.5281 27.8592 22.4775C27.8416 22.3431 27.8265 22.2087 27.8126 22.0738C27.8088 22.0421 27.8057 22.0102 27.8032 21.9781C27.7969 21.9206 27.7918 21.8638 27.7868 21.8069C27.7824 21.7606 27.778 21.7144 27.7748 21.6681C27.7717 21.6219 27.766 21.5644 27.7622 21.5125C27.7622 21.4925 27.7591 21.4731 27.7578 21.4531C27.7534 21.3956 27.7496 21.3375 27.7459 21.28C27.7408 21.2004 27.7364 21.121 27.7326 21.0419C27.7295 20.9975 27.7276 20.9538 27.7257 20.9094C27.7207 20.7963 27.7163 20.6819 27.7131 20.5681L27.7094 20.4138C27.7094 20.3606 27.7094 20.3075 27.7094 20.2544C27.7094 20.1681 27.7094 20.0819 27.7094 19.9956C27.7094 19.9094 27.7094 19.8231 27.7094 19.7369C27.7094 19.6619 27.7106 19.5869 27.7131 19.5119C27.7175 19.3194 27.7251 19.1281 27.7358 18.9369C27.7389 18.8669 27.7427 18.7963 27.7478 18.7263C27.7547 18.6156 27.7622 18.5044 27.7711 18.3944C27.7761 18.3319 27.7818 18.2694 27.7874 18.2031C27.7937 18.1288 27.8013 18.0544 27.8088 17.9794L27.8145 17.9206C27.8221 17.8469 27.8302 17.7731 27.8391 17.6994C27.8479 17.6219 27.8573 17.545 27.8668 17.4688C27.8743 17.41 27.8819 17.3519 27.8901 17.2938C27.8982 17.2356 27.9045 17.1894 27.9121 17.1375C27.9343 16.9817 27.9585 16.8267 27.9845 16.6725C27.9965 16.6019 28.0084 16.5319 28.021 16.4619C28.0207 16.4579 28.0207 16.454 28.021 16.45C28.0475 16.3006 28.0758 16.1525 28.1066 16.0044C28.1136 15.9694 28.1205 15.935 28.1281 15.9006C28.1482 15.8025 28.1696 15.7044 28.191 15.6069C28.2393 15.3915 28.2915 15.1775 28.3478 14.965C28.3705 14.8769 28.3938 14.7888 28.4183 14.7006C28.4454 14.6019 28.4737 14.5025 28.5027 14.4044C28.5285 14.3156 28.5549 14.2269 28.5826 14.1388C28.5871 14.1219 28.5921 14.1056 28.5978 14.0894C28.6261 13.9981 28.6551 13.9075 28.6846 13.8169C28.7161 13.72 28.7476 13.6244 28.7816 13.5281C28.8156 13.4319 28.8477 13.3406 28.8824 13.2425L28.8861 13.2319C28.9075 13.1694 28.9296 13.1119 28.9529 13.0525C28.9762 12.9931 28.9906 12.95 29.0102 12.8988C29.0731 12.7381 29.1361 12.5781 29.1991 12.42C29.2205 12.3675 29.2419 12.315 29.262 12.2631C29.2715 12.2388 29.2822 12.215 29.2929 12.1913C29.3187 12.1288 29.3458 12.0663 29.3735 12.0038C29.3785 11.9913 29.3835 11.9794 29.3892 11.9675C29.4188 11.9 29.4522 11.8331 29.4792 11.7663C29.5466 11.6188 29.6152 11.4719 29.6864 11.3288C29.7103 11.2794 29.7342 11.23 29.7588 11.1813C29.7834 11.1325 29.7997 11.0981 29.8218 11.0563C29.8438 11.0144 29.8564 10.9863 29.8746 10.9519C29.8929 10.9175 29.9124 10.8775 29.9326 10.84C29.9603 10.7863 29.9886 10.7325 30.0169 10.6794C30.0541 10.6088 30.0919 10.5388 30.1296 10.4694C30.2316 10.2831 30.3366 10.099 30.4445 9.91688C30.4728 9.86875 30.5011 9.82125 30.5301 9.77376C30.5641 9.71626 30.5987 9.65938 30.634 9.6025C30.7127 9.47313 30.7939 9.34438 30.8764 9.2175C30.9192 9.15063 30.9633 9.08375 31.0074 9.0175C31.042 8.96438 31.0772 8.91188 31.1125 8.86C31.3085 8.56834 31.5121 8.28396 31.7232 8.00688C31.756 7.96313 31.7894 7.92 31.8227 7.87688C31.8435 7.84875 31.8643 7.82125 31.8857 7.79438L32.0066 7.64C32.1526 7.455 32.3025 7.27271 32.4561 7.09313C32.5084 7.03063 32.5606 6.96813 32.6135 6.91063C32.6664 6.85313 32.7048 6.80626 32.7514 6.75438C32.798 6.70251 32.8496 6.64375 32.9 6.58938C32.9359 6.54938 32.9724 6.50938 33.0096 6.47001C33.3261 6.12667 33.6549 5.79521 33.9962 5.47563C35.5413 6.92832 36.8461 8.61356 37.8628 10.4694C35.3799 13.0295 33.995 16.4463 34 20C34 20.1619 34 20.3231 34.0088 20.4831C34.0822 22.6648 34.6807 24.7973 35.7541 26.7025C35.8603 26.8912 35.9709 27.0771 36.0859 27.26L55.1637 8.3225C53.11 7.05178 50.7553 6.34042 48.3366 6.26001C48.1755 6.25376 48.013 6.25126 47.8499 6.25126C46.2508 6.24937 44.6634 6.52302 43.1586 7.06001C42.0868 5.18609 40.7871 3.44997 39.2889 1.89063C39.6813 1.70688 40.0801 1.53605 40.4852 1.37813L40.6526 1.31563C40.7924 1.26188 40.9335 1.21063 41.0751 1.16063C41.1337 1.13938 41.1929 1.11938 41.2521 1.09813C41.3112 1.07688 41.3698 1.05751 41.4296 1.03563C41.4894 1.01376 41.5555 0.993132 41.6216 0.973132C41.6997 0.947507 41.7784 0.923132 41.8578 0.898757L42.0567 0.836257C42.2091 0.791257 42.3623 0.747715 42.5163 0.705632C42.5598 0.693757 42.6026 0.681882 42.6461 0.671257C42.7015 0.656257 42.7575 0.641257 42.8135 0.627507C42.8696 0.613757 42.9395 0.595007 43.0024 0.579382C43.0818 0.560007 43.1611 0.540632 43.2411 0.522507L43.3594 0.500007L43.5017 0.468757C43.6793 0.430007 43.8581 0.393132 44.0382 0.359382C44.1194 0.343757 44.2006 0.328757 44.2825 0.314382H44.2913C44.3719 0.299382 44.4531 0.285632 44.5343 0.272507C44.6716 0.250007 44.8097 0.229174 44.9486 0.210007L45.0915 0.187507C45.3081 0.158132 45.5254 0.131882 45.7445 0.109382L45.8452 0.0993823C45.9044 0.0931323 45.9629 0.0881323 46.0215 0.0831323C46.1084 0.0750073 46.1953 0.0675073 46.2822 0.0612573L46.3791 0.0543823C46.4358 0.0500073 46.4931 0.0456323 46.5504 0.0425073H46.5699L46.7771 0.0306323C46.8721 0.0256323 46.9659 0.0212573 47.0635 0.0175073L47.26 0.0112573C47.3097 0.0112573 47.3601 0.00813232 47.4098 0.00750732H47.5509C47.651 0.00750732 47.7511 0.00750732 47.8518 0.00750732H48.1125H48.2731L48.4286 0.0112573C48.5432 0.0112573 48.6578 0.0187573 48.7723 0.0237573C48.8171 0.0237573 48.8611 0.0275073 48.9058 0.0306323C48.9856 0.0343823 49.0655 0.0387573 49.1457 0.0437573L49.3201 0.0556323L49.3799 0.0600073C49.4322 0.0637573 49.4845 0.0675073 49.5367 0.0725073C49.589 0.0775073 49.6299 0.0800073 49.6765 0.0843823C49.7338 0.0893823 49.7911 0.0943823 49.849 0.100632C49.8809 0.103132 49.913 0.106257 49.9453 0.110007C50.0813 0.123757 50.2167 0.138757 50.3521 0.156257C50.4031 0.161882 50.4547 0.168757 50.5063 0.175632C50.6323 0.191882 50.7538 0.208757 50.8772 0.227507L51.0623 0.256257C51.1253 0.265632 51.1882 0.275632 51.2462 0.286257L51.4294 0.318132C51.51 0.331882 51.5906 0.346882 51.6699 0.362507C51.7329 0.373132 51.7895 0.385007 51.8493 0.396882L51.9753 0.423132C52.0974 0.448132 52.2183 0.474382 52.3392 0.501882L52.5174 0.543132C52.5774 0.556882 52.6372 0.571257 52.6968 0.586257C52.8165 0.615007 52.9355 0.645424 53.0538 0.677507L53.2308 0.725007L53.4077 0.774382C53.5254 0.808132 53.6432 0.842507 53.7596 0.878132L53.9611 0.940632L54.162 1.00313L54.3616 1.06938C54.4944 1.11438 54.6266 1.16126 54.7582 1.20876L54.9547 1.28126C55.0088 1.30126 55.063 1.32209 55.1171 1.34376C55.2015 1.37501 55.2846 1.40626 55.369 1.44126L55.5409 1.51126L55.7335 1.59126C55.7965 1.61813 55.8595 1.64563 55.9224 1.67376C55.9854 1.70188 56.0483 1.72876 56.1113 1.75751L56.3002 1.84376C56.3632 1.87251 56.4261 1.90188 56.4891 1.93188C56.5709 1.97001 56.6522 2.00876 56.7328 2.04876L56.8631 2.11126C56.9261 2.14188 56.989 2.17376 57.052 2.20501C57.1779 2.26751 57.2975 2.33001 57.4197 2.39751L57.5796 2.48438C57.6898 2.54688 57.7987 2.60501 57.9064 2.66751L58.0323 2.73938C58.1885 2.83001 58.3433 2.92251 58.4963 3.01813L58.6097 3.08876C58.6449 3.11063 58.6802 3.13251 58.7148 3.15501C58.7778 3.19688 58.8458 3.23876 58.9106 3.28001C58.9566 3.30938 59.0019 3.33876 59.0466 3.36938C59.0913 3.40001 59.1323 3.42626 59.1726 3.45563C59.5239 3.6923 59.8668 3.94021 60.2014 4.19938C60.2423 4.23001 60.2832 4.26188 60.3235 4.29376C60.5036 4.43459 60.681 4.57855 60.8556 4.72563L61.0319 4.87501C61.0948 4.92876 61.1578 4.98251 61.2208 5.03751C61.2598 5.07126 61.2982 5.10563 61.3366 5.14063C61.4203 5.21438 61.5028 5.29001 61.5847 5.36626C61.6344 5.41188 61.6842 5.45813 61.7333 5.50501C61.9813 5.73834 62.2229 5.97813 62.458 6.22438C62.5052 6.27313 62.5518 6.3225 62.5978 6.37188C62.6746 6.45313 62.7508 6.53501 62.8251 6.61813C62.8603 6.65626 62.8949 6.69438 62.9289 6.73313C62.9843 6.79563 63.0385 6.85813 63.0926 6.92063C63.1468 6.98313 63.1909 7.03375 63.2393 7.09063C63.3871 7.26355 63.5321 7.43959 63.6744 7.61875C63.7065 7.65875 63.7374 7.69938 63.7695 7.74C63.9005 7.90667 64.0281 8.0748 64.1523 8.24438L45.7816 26.4744L40.5381 31.6794C42.5917 32.9502 44.9464 33.6616 47.3651 33.7419C47.5263 33.7481 47.6888 33.7506 47.8518 33.7506C55.5018 33.7506 61.7037 27.5944 61.7037 20.0006C61.7037 19.8388 61.7037 19.6775 61.6949 19.5175L64.5282 16.705L67.1185 14.1331C67.1544 14.2488 67.189 14.3656 67.223 14.4825C67.2394 14.5406 67.2564 14.5994 67.2728 14.6581C67.2891 14.7169 67.3049 14.775 67.3206 14.8338C67.3525 14.9513 67.3832 15.0694 67.4125 15.1881C67.4276 15.2477 67.4421 15.3071 67.456 15.3663L67.4975 15.5431C67.5252 15.6631 67.5517 15.7831 67.5769 15.9044L67.6033 16.0294C67.6153 16.0888 67.6272 16.1481 67.6379 16.2075C67.6537 16.2863 67.6688 16.3663 67.6826 16.4463C67.694 16.5067 67.7047 16.5673 67.7148 16.6281C67.7255 16.6906 67.7355 16.7531 67.745 16.8106C67.7544 16.8681 67.7645 16.9356 67.7739 16.9944C67.7928 17.1169 67.8102 17.2396 67.8262 17.3625C67.8331 17.4138 67.8401 17.465 67.8457 17.5156C67.8634 17.65 67.8785 17.7844 67.8923 17.9194C67.8961 17.951 67.8992 17.9829 67.9018 18.015C67.9081 18.0725 67.9131 18.1294 67.9181 18.1863C67.9225 18.2325 67.9269 18.2788 67.9301 18.325C67.9332 18.3713 67.9389 18.4288 67.9427 18.4806C67.9427 18.5006 67.9458 18.52 67.9471 18.54C67.9515 18.5975 67.9553 18.6556 67.959 18.7131C67.9641 18.7927 67.9685 18.8721 67.9723 18.9513C67.9723 18.9956 67.9773 19.0394 67.9792 19.0838C67.9842 19.1975 67.9886 19.3113 67.9918 19.425L67.9956 19.5794C67.9956 19.6325 67.9956 19.6856 67.9956 19.7388C67.9985 19.8267 68 19.9138 68 20Z" fill="#71A894"/>
<path d="M34 5.47682C33.6592 5.79682 33.3303 6.12828 33.0134 6.47119C32.9762 6.51057 32.9397 6.55057 32.9038 6.59057C32.8534 6.64494 32.8037 6.69994 32.7552 6.75557C32.7067 6.81119 32.6627 6.85932 32.6173 6.91182C32.572 6.96432 32.5122 7.03307 32.4599 7.09432C32.3063 7.27349 32.1564 7.45578 32.0104 7.64119L31.8895 7.79557C31.8674 7.82244 31.8467 7.84995 31.8265 7.87807C31.7931 7.9212 31.7598 7.96432 31.727 8.00807C31.5172 8.28682 31.3136 8.57119 31.1163 8.86119C31.081 8.91307 31.0458 8.96557 31.0111 9.01869C30.9671 9.08494 30.923 9.15182 30.8802 9.21869C30.7977 9.34369 30.7165 9.47432 30.6378 9.60369C30.6025 9.66057 30.5679 9.71744 30.5339 9.77494C30.5049 9.82244 30.4766 9.86994 30.4483 9.91807C30.3408 10.1002 30.2359 10.2843 30.1334 10.4706C28.8426 9.13401 27.2923 8.07095 25.5761 7.34555C23.8599 6.62015 22.0134 6.24745 20.1481 6.24994C12.4981 6.24994 6.2963 12.4062 6.2963 19.9999C6.2963 27.5937 12.4981 33.75 20.1481 33.75C21.7473 33.7518 23.3346 33.4782 24.8395 32.9412C25.9118 34.8149 27.2121 36.5506 28.7111 38.1093C26.0322 39.3586 23.108 40.0042 20.1481 40C9.0207 40 0 31.0456 0 19.9999C0 8.95432 9.0207 -5.73622e-05 20.1481 -5.73622e-05C25.3017 -0.00315823 30.2599 1.95727 34 5.47682Z" fill="#303031"/>
</g>
<defs>
<clipPath id="clip0_322_20">
<rect width="68" height="40" fill="white"/>
</clipPath>
</defs>
</svg>
