<svg width="62" height="610" viewBox="0 0 62 610" fill="none" xmlns="http://www.w3.org/2000/svg">
<path d="M-384.591 0.394742C-438.452 -1.33151 -470.316 35.6128 -494.572 83.7334C-538.833 171.537 -553.967 276.494 -539.418 365.852C-524.868 455.21 -472.047 517.336 -419.364 554.563C-339.508 610.991 -318.59 612.6 -240.5 607.018C-183.503 602.944 -152.808 595.565 -86.8058 561.844C-20.8039 528.123 83.4386 465.113 57.4221 374.546C36.8276 302.855 -105.879 282.313 -105.879 282.313C-105.879 282.313 -172.389 274.713 -212.359 243.749C-253.729 211.701 -279.937 128.037 -279.937 128.037C-279.937 128.037 -320.164 2.45965 -384.591 0.394742Z" fill="#08D3BB"/>
</svg>
